<svg width="278" height="597" viewBox="0 0 278 597" fill="none" xmlns="http://www.w3.org/2000/svg">
<path d="M22.9472 10.0722C52.2472 4.1415 83.5472 0.953754 113.447 6.81031C135.847 11.1842 157.247 20.4509 170.247 34.9811C181.247 47.2132 185.847 62.2623 182.847 76.7925C179.447 93.695 166.547 107.632 150.747 119.642C116.947 145.292 72.7472 161.453 37.0472 185.472C-0.752792 210.9 -31.0528 250.71 -14.0528 289.408C1.1472 324.028 49.2472 343.674 89.5472 360.131C123.347 373.846 158.047 386.745 190.147 402.684C220.047 417.585 252.247 437.082 261.747 464.141C273.447 497.798 242.147 529.601 206.347 547.689C160.947 570.597 104.547 581.494 50.4472 584.979C22.5472 586.758 -5.6528 586.906 -33.5528 585.646C-61.6528 584.386 -89.5528 582.755 -117.353 579.048C-130.353 577.269 -143.253 575.193 -156.153 572.969C-163.053 571.783 -165.953 579.789 -159.053 580.827C-131.053 584.905 -102.753 588.537 -74.5528 591.725C-46.1528 594.913 -17.7528 596.692 11.0472 596.766C68.3472 596.914 126.447 589.204 178.647 571.19C225.047 555.177 269.847 527.748 276.747 487.789C281.947 458.136 259.047 432.56 230.247 413.73C200.047 393.862 164.047 379.628 128.747 365.469C109.847 357.907 90.7472 350.346 72.2472 342.265C51.1472 333.073 30.3472 322.694 14.5472 308.683C-2.75279 293.337 -9.45279 273.914 -4.85278 254.268C-0.152786 234.252 13.8472 216.46 32.3472 201.708C66.1472 174.723 111.847 158.34 148.447 133.801C166.147 121.94 182.247 107.78 190.047 90.8037C196.747 76.1253 196.647 59.9641 188.747 45.5822C180.647 30.8296 165.547 18.82 146.847 11.1842C122.047 1.17616 92.4472 -0.825453 64.8472 1.69509C50.4472 3.0295 36.3472 5.62418 22.6472 9.18259C21.7472 9.33086 22.1472 10.2946 22.9472 10.0722Z" fill="rgba(37, 99, 235, 0.3)"/>
</svg>
